<?xml version="1.0" encoding="UTF-8" standalone="no"?>
<!-- Created with Inkscape (http://www.inkscape.org/) -->

<svg
   width="1000"
   height="1000"
   viewBox="0 0 264.58333 264.58333"
   version="1.1"
   id="svg1"
   inkscape:version="1.4.2 (ebf0e94, 2025-05-08)"
   sodipodi:docname="Glyph-A045.svg"
   xmlns:inkscape="http://www.inkscape.org/namespaces/inkscape"
   xmlns:sodipodi="http://sodipodi.sourceforge.net/DTD/sodipodi-0.dtd"
   xmlns="http://www.w3.org/2000/svg"
   xmlns:svg="http://www.w3.org/2000/svg">
  <sodipodi:namedview
     id="namedview1"
     pagecolor="#ffffff"
     bordercolor="#666666"
     borderopacity="1.0"
     inkscape:showpageshadow="2"
     inkscape:pageopacity="0.0"
     inkscape:pagecheckerboard="0"
     inkscape:deskcolor="#d1d1d1"
     inkscape:document-units="mm"
     showguides="true"
     inkscape:current-layer="layer1">
    <sodipodi:guide
       position="0,264.58333"
       orientation="0.5,0.8660254"
       id="guide1"
       inkscape:locked="false"
       inkscape:label=""
       inkscape:color="rgb(0,134,229)" />
    <sodipodi:guide
       position="0,0"
       orientation="-0.5,0.8660254"
       id="guide2"
       inkscape:locked="false"
       inkscape:label=""
       inkscape:color="rgb(0,134,229)" />
    <sodipodi:guide
       position="0,0"
       orientation="-0.8660254,0.5"
       id="guide3"
       inkscape:locked="false"
       inkscape:label=""
       inkscape:color="rgb(0,134,229)" />
    <sodipodi:guide
       position="0,264.58333"
       orientation="0.8660254,0.5"
       id="guide4"
       inkscape:locked="false"
       inkscape:label=""
       inkscape:color="rgb(0,134,229)" />
    <sodipodi:guide
       position="0,264.58333"
       orientation="1,0"
       id="guide5"
       inkscape:locked="false" />
    <sodipodi:guide
       position="229.13588,132.29166"
       orientation="1,0"
       id="guide6"
       inkscape:locked="false" />
    <sodipodi:guide
       position="229.13588,132.29166"
       orientation="0,-1"
       id="guide7"
       inkscape:locked="false" />
    <sodipodi:guide
       position="229.13588,0"
       orientation="0.5,0.8660254"
       id="guide8"
       inkscape:locked="false"
       inkscape:label=""
       inkscape:color="rgb(0,134,229)" />
    <sodipodi:guide
       position="229.13588,264.58333"
       orientation="-0.5,0.8660254"
       id="guide9"
       inkscape:locked="false"
       inkscape:label=""
       inkscape:color="rgb(0,134,229)" />
    <sodipodi:guide
       position="229.13588,0"
       orientation="0.8660254,0.5"
       id="guide10"
       inkscape:locked="false"
       inkscape:label=""
       inkscape:color="rgb(0,134,229)" />
    <sodipodi:guide
       position="229.13588,264.58333"
       orientation="-0.8660254,0.5"
       id="guide11"
       inkscape:locked="false"
       inkscape:label=""
       inkscape:color="rgb(0,134,229)" />
    <sodipodi:guide
       position="114.56794,198.43749"
       orientation="1,0"
       id="guide12"
       inkscape:locked="false" />
  </sodipodi:namedview>
  <defs
     id="defs1">
    <inkscape:path-effect
       effect="offset"
       id="path-effect4"
       is_visible="true"
       lpeversion="1.3"
       linejoin_type="miter"
       unit="px"
       offset="-1"
       miter_limit="4"
       attempt_force_join="false"
       update_on_knot_move="true" />
  </defs>
  <g
     inkscape:label="Layer 1"
     inkscape:groupmode="layer"
     id="layer1">
    <g
       id="g4"
       inkscape:path-effect="#path-effect4">
      <path
         style="fill:#000000;fill-rule:evenodd;stroke-width:1;stroke-linejoin:round;stroke-miterlimit:100;paint-order:markers stroke fill"
         d="M 0.27539063,1.0273437 V 263.55664 C 28.562377,214.36526 42.6875,173.32387 42.6875,132.29297 42.6875,91.262066 28.562377,50.218729 0.27539063,1.0273437 Z"
         id="path1"
         sodipodi:nodetypes="ccc"
         inkscape:original-d="M 0,0 C 57.283971,99.218748 57.283971,165.36459 0,264.58333 Z" />
      <path
         style="fill:#000000;fill-rule:evenodd;stroke-width:1;stroke-linejoin:round;stroke-miterlimit:100;paint-order:markers stroke fill"
         d="M 0.75195312,0.75195312 C 29.209451,49.844895 57.690738,82.600024 93.224609,103.11523 c 35.533431,20.51496 78.141321,28.80176 134.884761,28.90039 z"
         id="path2"
         sodipodi:nodetypes="ccc"
         inkscape:original-d="M 0,0 C 57.283971,99.218748 114.56794,132.29167 229.13588,132.29166 Z" />
      <path
         style="fill:#000000;fill-rule:evenodd;stroke-width:1;stroke-linejoin:round;stroke-miterlimit:100;paint-order:markers stroke fill"
         d="m 228.10937,132.56641 c -56.74344,0.0987 -99.35132,8.3869 -134.884761,28.90234 -35.53387,20.51569 -64.015159,53.27034 -92.47265588,102.36328 z"
         id="path3"
         sodipodi:nodetypes="ccc"
         inkscape:original-d="M 0,264.58333 C 57.283971,165.36459 114.56794,132.29167 229.13587,132.29166 Z" />
      <path
         style="fill:#000000;fill-rule:evenodd;stroke-width:1;stroke-linejoin:round;stroke-miterlimit:100;paint-order:markers stroke fill"
         d="m 8.734375,15.128906 c 3.447082,6.446053 6.118323,12.527301 9.048828,18.726563 0.456542,0.963723 0.966099,1.961626 1.410156,2.919922 4.914033,10.628897 9.090505,20.998601 12.46875,31.074218 0.204682,0.608949 0.476714,1.244246 0.675782,1.851563 4.703261,14.386258 7.76877,28.403002 9.324218,42.191408 0.464339,4.10704 0.76454,8.2103 0.949219,12.29883 0.242447,5.38751 0.242465,10.8156 0,16.20312 -0.184687,4.08819 -0.484919,8.19018 -0.949219,12.29688 -1.555431,13.78857 -4.620897,27.80496 -9.324218,42.1914 -0.199068,0.60732 -0.4711,1.24262 -0.675782,1.85156 -3.378245,10.07562 -7.55472,20.44533 -12.46875,31.07422 -0.444057,0.9583 -0.953614,1.9562 -1.410156,2.91993 -2.930503,6.19926 -5.601749,12.28051 -9.048828,18.72656 3.863499,-6.21568 7.798832,-11.57713 11.707031,-17.22071 0.599889,-0.86779 1.20329,-1.79778 1.804688,-2.65234 6.75147,-9.57573 13.646954,-18.38225 20.6875,-26.34961 0.423084,-0.47951 0.8353,-1.03002 1.259765,-1.5039 10.103422,-11.26205 20.706552,-20.9228 31.865235,-29.16211 3.332301,-2.46175 6.742538,-4.77917 10.199218,-6.98829 4.536949,-2.89844 9.22924,-5.60795 14.007818,-8.08789 3.64091,-1.88875 7.35293,-3.68309 11.15039,-5.33789 12.71966,-5.54649 26.39161,-9.90017 41.20312,-13.01953 0.60471,-0.12686 1.2683,-0.20504 1.87695,-0.32812 10.43407,-2.11819 21.52688,-3.68953 33.21289,-4.75 1.03372,-0.0929 2.13346,-0.14931 3.17774,-0.23438 6.84622,-0.56347 13.46125,-1.29106 20.78125,-1.52929 -7.32001,-0.23822 -13.93503,-0.96586 -20.78125,-1.5293 -1.04428,-0.0851 -2.14402,-0.14149 -3.17774,-0.23438 -11.68601,-1.06042 -22.77882,-2.6319 -33.21289,-4.75 -0.60865,-0.12307 -1.27224,-0.20126 -1.87695,-0.32812 -14.80307,-3.11745 -28.46819,-7.46806 -41.18164,-13.00977 -3.81301,-1.66097 -7.5401,-3.46256 -11.19531,-5.35937 -4.762622,-2.47247 -9.440331,-5.17229 -13.962893,-8.060549 C 82.808978,96.802454 79.38599,94.47557 76.041016,92.003906 64.888702,83.76749 54.291623,74.111648 44.193359,62.855469 43.768889,62.381586 43.356683,61.831072 42.933594,61.351562 35.893049,53.384286 28.997565,44.577644 22.246094,35.001953 21.644696,34.147396 21.041295,33.217405 20.441406,32.349609 16.533206,26.706057 12.597876,21.344578 8.734375,15.128906 Z"
         id="path4"
         sodipodi:nodetypes="cccc"
         inkscape:original-d="M 0,0 C 57.283971,99.218748 114.56794,132.29167 229.13588,132.29167 114.56794,132.29167 57.283971,165.36459 0,264.58333 57.283971,165.36459 57.283971,99.218748 0,0 Z" />
    </g>
  </g>
</svg>
