<?xml version="1.0" encoding="UTF-8" standalone="no"?>
<!-- Created with Inkscape (http://www.inkscape.org/) -->

<svg
   width="1000"
   height="1000"
   viewBox="0 0 264.58333 264.58333"
   version="1.1"
   id="svg1"
   inkscape:version="1.4.2 (ebf0e94, 2025-05-08)"
   sodipodi:docname="Glyph-A046.svg"
   xmlns:inkscape="http://www.inkscape.org/namespaces/inkscape"
   xmlns:sodipodi="http://sodipodi.sourceforge.net/DTD/sodipodi-0.dtd"
   xmlns="http://www.w3.org/2000/svg"
   xmlns:svg="http://www.w3.org/2000/svg">
  <sodipodi:namedview
     id="namedview1"
     pagecolor="#ffffff"
     bordercolor="#666666"
     borderopacity="1.0"
     inkscape:showpageshadow="2"
     inkscape:pageopacity="0.0"
     inkscape:pagecheckerboard="0"
     inkscape:deskcolor="#d1d1d1"
     inkscape:document-units="mm"
     showguides="true"
     inkscape:current-layer="layer1">
    <sodipodi:guide
       position="0,264.58333"
       orientation="0.5,0.8660254"
       id="guide1"
       inkscape:locked="false"
       inkscape:label=""
       inkscape:color="rgb(0,134,229)" />
    <sodipodi:guide
       position="0,0"
       orientation="-0.5,0.8660254"
       id="guide2"
       inkscape:locked="false"
       inkscape:label=""
       inkscape:color="rgb(0,134,229)" />
    <sodipodi:guide
       position="0,0"
       orientation="-0.8660254,0.5"
       id="guide3"
       inkscape:locked="false"
       inkscape:label=""
       inkscape:color="rgb(0,134,229)" />
    <sodipodi:guide
       position="0,264.58333"
       orientation="0.8660254,0.5"
       id="guide4"
       inkscape:locked="false"
       inkscape:label=""
       inkscape:color="rgb(0,134,229)" />
    <sodipodi:guide
       position="0,264.58333"
       orientation="1,0"
       id="guide5"
       inkscape:locked="false" />
    <sodipodi:guide
       position="229.13588,132.29166"
       orientation="1,0"
       id="guide6"
       inkscape:locked="false" />
    <sodipodi:guide
       position="229.13588,132.29166"
       orientation="0,-1"
       id="guide7"
       inkscape:locked="false" />
    <sodipodi:guide
       position="229.13588,0"
       orientation="0.5,0.8660254"
       id="guide8"
       inkscape:locked="false"
       inkscape:label=""
       inkscape:color="rgb(0,134,229)" />
    <sodipodi:guide
       position="229.13588,264.58333"
       orientation="-0.5,0.8660254"
       id="guide9"
       inkscape:locked="false"
       inkscape:label=""
       inkscape:color="rgb(0,134,229)" />
    <sodipodi:guide
       position="229.13588,0"
       orientation="0.8660254,0.5"
       id="guide10"
       inkscape:locked="false"
       inkscape:label=""
       inkscape:color="rgb(0,134,229)" />
    <sodipodi:guide
       position="229.13588,264.58333"
       orientation="-0.8660254,0.5"
       id="guide11"
       inkscape:locked="false"
       inkscape:label=""
       inkscape:color="rgb(0,134,229)" />
    <sodipodi:guide
       position="114.56794,198.43749"
       orientation="1,0"
       id="guide12"
       inkscape:locked="false" />
  </sodipodi:namedview>
  <defs
     id="defs1">
    <inkscape:path-effect
       effect="offset"
       id="path-effect4"
       is_visible="true"
       lpeversion="1.3"
       linejoin_type="miter"
       unit="px"
       offset="-1"
       miter_limit="4"
       attempt_force_join="false"
       update_on_knot_move="true" />
  </defs>
  <g
     inkscape:label="Layer 1"
     inkscape:groupmode="layer"
     id="layer1">
    <g
       id="g4"
       inkscape:path-effect="#path-effect4">
      <path
         style="fill:#000000;fill-rule:evenodd;stroke-width:1;stroke-linejoin:round;stroke-miterlimit:100;paint-order:markers stroke fill"
         d="m 228.86133,1.0273437 c -1.74777,3.039394 -2.94824,5.7923842 -4.58789,8.7714844 -6.45487,11.7478999 -12.13595,23.1173839 -16.91016,34.0800779 -3.81324,8.731874 -7.54633,17.420717 -10.29297,25.785156 -0.009,0.02857 -0.0219,0.05737 -0.0312,0.08594 -7.06059,21.527674 -10.58984,42.03704 -10.58984,62.54297 0,30.28975 7.81636,60.63129 23.22656,94.20703 2.39008,5.2203 5.50681,10.79363 8.26953,16.18359 3.5468,6.90598 6.75706,13.64058 10.91602,20.87305 z M 204.41016,49.832031 c -1.12601,2.726577 -2.26334,5.49082 -3.28321,8.179688 1.021,-2.698745 2.15534,-5.443122 3.28321,-8.179688 z m -9.31836,25.509766 c -1.18022,3.916921 -1.99064,7.761909 -2.9336,11.623047 0.94076,-3.862557 1.75566,-7.704936 2.9336,-11.623047 z m -4.28711,96.912113 c 1.01519,4.6771 2.20696,9.4068 3.57422,14.16015 -1.36477,-4.75552 -2.56149,-9.48058 -3.57422,-14.16015 z m 9.42383,32.07617 c 2.08156,5.6301 4.31883,11.32385 6.86914,17.125 -2.5444,-5.79949 -4.79309,-11.49575 -6.86914,-17.125 z"
         id="path1"
         sodipodi:nodetypes="ccc"
         inkscape:original-d="M 229.13583,9.0895678e-6 C 171.85185,99.218757 171.85185,165.3646 229.13583,264.58334 Z" />
      <path
         style="fill:#000000;fill-rule:evenodd;stroke-width:1;stroke-linejoin:round;stroke-miterlimit:100;paint-order:markers stroke fill"
         d="M 228.38477,0.75195312 1.0273437,132.01562 C 57.770789,131.91699 100.37868,123.63019 135.91211,103.11523 171.44598,82.600024 199.92726,49.844895 228.38477,0.75195312 Z"
         id="path2"
         sodipodi:nodetypes="ccc"
         inkscape:original-d="M 229.13583,9.0895678e-6 C 171.85185,99.218757 114.56789,132.29168 -5.196149e-5,132.29167 Z" />
      <path
         style="fill:#000000;fill-rule:evenodd;stroke-width:1;stroke-linejoin:round;stroke-miterlimit:100;paint-order:markers stroke fill"
         d="M 1.0273437,132.56641 228.38477,263.83203 C 199.92726,214.73909 171.44598,181.98444 135.91211,161.46875 100.37867,140.95331 57.770789,132.66506 1.0273437,132.56641 Z"
         id="path3"
         sodipodi:nodetypes="ccc"
         inkscape:original-d="M 229.13583,264.58334 C 171.85185,165.3646 114.56789,132.29168 -4.196149e-5,132.29167 Z" />
      <path
         style="fill:#000000;fill-rule:evenodd;stroke-width:1;stroke-linejoin:round;stroke-miterlimit:100;paint-order:markers stroke fill"
         d="m 220.40234,15.128906 c -3.8635,6.215672 -7.79883,11.577151 -11.70703,17.220703 -0.59989,0.867796 -1.20329,1.797787 -1.80469,2.652344 -6.75147,9.575691 -13.64695,18.382333 -20.6875,26.349609 -0.42308,0.47951 -0.83529,1.030024 -1.25976,1.503907 -10.09826,11.256179 -20.69534,20.912021 -31.84766,29.148437 -3.34497,2.471664 -6.76796,4.798548 -10.23828,7.015625 -4.52256,2.888259 -9.20027,5.588079 -13.96289,8.060549 -3.65521,1.89681 -7.3823,3.6984 -11.19531,5.35937 -12.71346,5.54171 -26.378571,9.89232 -41.181642,13.00977 -0.604714,0.12686 -1.268295,0.20505 -1.876953,0.32812 -10.434068,2.1181 -21.526873,3.68958 -33.212891,4.75 -1.033715,0.0929 -2.133453,0.14931 -3.177734,0.23438 -6.846223,0.56344 -13.461244,1.29108 -20.78125,1.5293 7.320004,0.23823 13.935029,0.96582 20.78125,1.52929 1.044281,0.0851 2.144019,0.14149 3.177734,0.23438 11.686015,1.06047 22.778824,2.63181 33.212891,4.75 0.608658,0.12308 1.272239,0.20126 1.876953,0.32812 14.81151,3.11936 28.483462,7.47304 41.203122,13.01953 3.79746,1.6548 7.50948,3.44914 11.15039,5.33789 4.77858,2.47994 9.47087,5.18945 14.00782,8.08789 3.45668,2.20912 6.86691,4.52654 10.19921,6.98829 11.15869,8.23931 21.76182,17.90006 31.86524,29.16211 0.42447,0.47388 0.83668,1.02439 1.25976,1.5039 7.04055,7.96736 13.93603,16.77388 20.6875,26.34961 0.6014,0.85456 1.2048,1.78455 1.80469,2.65234 3.9082,5.64358 7.84353,11.00503 11.70703,17.22071 -3.44708,-6.44605 -6.11832,-12.5273 -9.04882,-18.72656 -0.45655,-0.96373 -0.9661,-1.96163 -1.41016,-2.91993 -4.91403,-10.62889 -9.09051,-20.9986 -12.46875,-31.07422 -0.20468,-0.60894 -0.47671,-1.24424 -0.67578,-1.85156 -4.70332,-14.38644 -7.76879,-28.40283 -9.32422,-42.1914 -0.4643,-4.1067 -0.76453,-8.20869 -0.94922,-12.29688 -0.24246,-5.38752 -0.24245,-10.81561 0,-16.20312 0.18468,-4.08853 0.48488,-8.19179 0.94922,-12.29883 1.55545,-13.788406 4.62096,-27.80515 9.32422,-42.191408 0.19907,-0.607317 0.4711,-1.242614 0.67578,-1.851563 3.37824,-10.075617 7.55472,-20.445321 12.46875,-31.074218 0.44406,-0.958296 0.95361,-1.956199 1.41016,-2.919922 2.9305,-6.199262 5.60174,-12.28051 9.04882,-18.726563 z"
         id="path4"
         sodipodi:nodetypes="cccc"
         inkscape:original-d="M 229.13583,9.0895678e-6 C 171.85185,99.218757 114.56789,132.29168 -5.196149e-5,132.29168 114.56789,132.29168 171.85185,165.3646 229.13583,264.58334 171.85185,165.3646 171.85185,99.218757 229.13583,9.0895678e-6 Z" />
    </g>
  </g>
</svg>
